<svg width="36" height="36" viewBox="0 0 36 36" fill="none" xmlns="http://www.w3.org/2000/svg">
<path d="M0 9C0 4.02944 4.02944 0 9 0H27C31.9706 0 36 4.02944 36 9V27C36 31.9706 31.9706 36 27 36H9C4.02944 36 0 31.9706 0 27V9Z" fill="#E0E0E0" fill-opacity="0.3"/>
<path d="M18 8.25C12.4766 8.25 8 11.8867 8 16.375C8 18.3125 8.83594 20.0859 10.2266 21.4805C9.73828 23.4492 8.10547 25.2031 8.08594 25.2227C8 25.3125 7.97656 25.4453 8.02734 25.5625C8.07812 25.6797 8.1875 25.75 8.3125 25.75C10.9023 25.75 12.8438 24.5078 13.8047 23.7422C15.082 24.2227 16.5 24.5 18 24.5C23.5234 24.5 28 20.8633 28 16.375C28 11.8867 23.5234 8.25 18 8.25ZM13 17.625C12.3086 17.625 11.75 17.0664 11.75 16.375C11.75 15.6836 12.3086 15.125 13 15.125C13.6914 15.125 14.25 15.6836 14.25 16.375C14.25 17.0664 13.6914 17.625 13 17.625ZM18 17.625C17.3086 17.625 16.75 17.0664 16.75 16.375C16.75 15.6836 17.3086 15.125 18 15.125C18.6914 15.125 19.25 15.6836 19.25 16.375C19.25 17.0664 18.6914 17.625 18 17.625ZM23 17.625C22.3086 17.625 21.75 17.0664 21.75 16.375C21.75 15.6836 22.3086 15.125 23 15.125C23.6914 15.125 24.25 15.6836 24.25 16.375C24.25 17.0664 23.6914 17.625 23 17.625Z" fill="#0F2347" fill-opacity="0.1"/>
</svg>
