<svg width="36" height="36" viewBox="0 0 36 36" fill="none" xmlns="http://www.w3.org/2000/svg">
<path d="M0 9C0 4.02944 4.02944 0 9 0H27C31.9706 0 36 4.02944 36 9V27C36 31.9706 31.9706 36 27 36H9C4.02944 36 0 31.9706 0 27V9Z" fill="#E0E0E0" fill-opacity="0.3"/>
<path d="M9.25 17H12.375V25.75H9.25V17ZM22.375 25.75H13.625V16.4981L15.5262 13.6462L16.0544 9.94812C16.0982 9.6508 16.2471 9.37903 16.4742 9.18214C16.7012 8.98525 16.9913 8.87628 17.2919 8.875H17.375C17.8721 8.8755 18.3488 9.0732 18.7003 9.42472C19.0518 9.77625 19.2495 10.2529 19.25 10.75V14.5H24.25C24.9128 14.5008 25.5482 14.7645 26.0169 15.2331C26.4855 15.7018 26.7492 16.3372 26.75 17V21.375C26.7487 22.5349 26.2873 23.6469 25.4671 24.4671C24.6469 25.2873 23.5349 25.7487 22.375 25.75Z" fill="#0F2347" fill-opacity="0.1"/>
</svg>
