<svg width="36" height="36" viewBox="0 0 36 36" fill="none" xmlns="http://www.w3.org/2000/svg">
<path d="M0 9C0 4.02944 4.02944 0 9 0H27C31.9706 0 36 4.02944 36 9V27C36 31.9706 31.9706 36 27 36H9C4.02944 36 0 31.9706 0 27V9Z" fill="#E0E0E0" fill-opacity="0.3"/>
<path d="M9.25 10.25H12.375V19H9.25V10.25ZM22.375 10.25H13.625V19.5019L15.5262 22.3538L16.0544 26.0519C16.0982 26.3492 16.2471 26.621 16.4742 26.8179C16.7012 27.0148 16.9913 27.1237 17.2919 27.125H17.375C17.8721 27.1245 18.3488 26.9268 18.7003 26.5753C19.0518 26.2238 19.2495 25.7471 19.25 25.25V21.5H24.25C24.9128 21.4992 25.5482 21.2355 26.0169 20.7669C26.4855 20.2982 26.7492 19.6628 26.75 19V14.625C26.7487 13.4651 26.2873 12.3531 25.4671 11.5329C24.6469 10.7127 23.5349 10.2513 22.375 10.25Z" fill="#0F2347" fill-opacity="0.1"/>
</svg>
