<svg width="162" height="162" viewBox="0 0 162 162" fill="none" xmlns="http://www.w3.org/2000/svg">
<g opacity="0.8" clip-path="url(#clip0_20_313)">
<path d="M162 80.9231C162.011 90.1382 160.443 99.2872 157.363 107.974C157.35 108.014 157.336 108.051 157.321 108.091V108.093C155.015 114.555 151.892 120.697 148.028 126.369C147.359 127.357 146.665 128.329 145.948 129.285C145.159 130.342 144.346 131.378 143.507 132.393C142.733 133.329 141.939 134.247 141.125 135.147C140.157 136.22 139.16 137.265 138.135 138.282C135.721 140.684 133.159 142.931 130.462 145.01C129.989 145.377 129.51 145.738 129.027 146.092C127.901 146.923 126.753 147.723 125.583 148.495C123.008 150.195 120.338 151.746 117.585 153.139C117.11 153.381 116.63 153.619 116.149 153.85C114.289 154.748 112.391 155.574 110.454 156.328C109.902 156.545 109.348 156.754 108.788 156.956C108.694 156.993 108.6 157.027 108.504 157.06C101.864 159.454 94.9389 160.965 87.9053 161.554C87.4166 161.598 86.9273 161.635 86.4373 161.666C85.9178 161.702 85.3977 161.732 84.8769 161.754C84.4652 161.775 84.0554 161.79 83.6417 161.802C83.5571 161.806 83.4705 161.81 83.3858 161.81C82.8298 161.827 82.2718 161.838 81.712 161.842C81.4753 161.844 81.2387 161.846 81.0001 161.846C80.8885 161.846 80.7769 161.846 80.6653 161.844C79.0511 161.839 77.449 161.786 75.8592 161.687C75.8265 161.685 75.7938 161.681 75.7611 161.681C75.1916 161.642 74.624 161.602 74.0583 161.552C72.0439 161.383 70.0513 161.139 68.0805 160.822C67.6264 160.751 67.1736 160.674 66.7221 160.591C64.7616 160.245 62.8267 159.828 60.9175 159.34C60.3499 159.196 59.7855 159.045 59.2244 158.888C51.4226 156.717 43.9932 153.382 37.187 148.997C36.0172 148.245 34.8692 147.463 33.743 146.652C33.6045 146.555 33.4679 146.455 33.3313 146.355C30.5957 144.363 27.9874 142.201 25.5218 139.884C24.354 138.788 23.2201 137.658 22.1202 136.493C7.88795 121.488 -0.0308683 101.595 9.04336e-05 80.9231C9.04336e-05 36.2309 36.2654 0 81.0001 0C125.735 0 162 36.2309 162 80.9231Z" fill="#F2F2F2"/>
<path d="M95.2842 39.9065C95.2847 41.3796 94.9233 42.8303 94.2316 44.1313C93.54 45.4323 92.5392 46.5438 91.3172 47.3681C90.0952 48.1925 88.6893 48.7046 87.223 48.8595C85.7566 49.0143 84.2747 48.8072 82.9072 48.2562C81.5397 47.7053 80.3284 46.8274 79.3798 45.6996C78.4312 44.5719 77.7742 43.2287 77.4664 41.788C77.1587 40.3473 77.2097 38.8532 77.6148 37.4368C78.02 36.0204 78.7671 34.725 79.7903 33.6644C79.8048 33.65 79.8192 33.6356 79.8336 33.6212C79.9056 33.5456 79.9777 33.47 80.0534 33.398C80.0538 33.398 80.0543 33.3979 80.0548 33.3978C80.0552 33.3976 80.0556 33.3973 80.0559 33.397C80.0563 33.3966 80.0565 33.3962 80.0567 33.3958C80.0569 33.3954 80.057 33.3949 80.057 33.3944C80.1506 33.308 80.2443 33.2216 80.3416 33.1388C81.6433 31.9987 83.2463 31.2576 84.9586 31.0041C86.671 30.7507 88.4202 30.9956 89.9969 31.7097C91.5735 32.4238 92.9107 33.5767 93.8484 35.0304C94.7861 36.4841 95.2846 38.1771 95.2842 39.9065V39.9065Z" fill="#2F2E41"/>
<path d="M89.3982 47.3249C92.3481 44.3778 92.3481 39.5996 89.3982 36.6526C86.4483 33.7055 81.6656 33.7055 78.7157 36.6526C75.7659 39.5996 75.7659 44.3778 78.7157 47.3249C81.6656 50.272 86.4483 50.272 89.3982 47.3249Z" fill="#9E616A"/>
<path d="M89.454 34.7316C88.2838 33.6376 86.8283 32.8957 85.2549 32.591C83.6815 32.2863 82.054 32.4313 80.5594 33.0093C80.5152 33.0266 80.4709 33.0459 80.4267 33.067C80.4247 33.067 80.4247 33.0689 80.4228 33.0689C80.2785 33.1285 80.1323 33.19 79.9918 33.2573L79.9053 33.2996V33.3111C79.8899 33.3226 79.8726 33.3361 79.8552 33.3476C79.8199 33.3806 79.7769 33.4043 79.7302 33.4168C78.2776 33.436 77.0943 33.9281 76.217 34.8796C75.0453 36.1482 74.495 38.1992 74.6643 40.6557L74.6682 40.7307L74.7336 40.773C75.3531 41.1593 75.9399 41.4995 76.5056 41.7975C76.8404 41.9762 77.1655 42.1396 77.4887 42.2895C77.5272 42.3068 77.5657 42.3261 77.6042 42.3434C80.875 43.8523 83.8668 44.1252 86.7412 43.1699L86.7951 43.1526L88.0168 41.1074C88.1427 41.8062 88.4791 42.4498 88.9811 42.9524C89.4831 43.4549 90.1267 43.7923 90.8258 43.9195L91.3338 44.0099L92.0784 44.1406L92.1091 44.0003C92.8479 40.6749 91.7801 36.9517 89.454 34.7316Z" fill="#2F2E41"/>
<path d="M108.01 50.5705C105.44 49.245 108.746 44.4342 108.081 41.6215C107.417 38.8088 102.633 37.9042 102.329 35.0303C102.024 32.1565 101.307 29.1924 99.4088 27.0117C98.1958 25.6182 96.4086 24.5895 94.5684 24.764C93.9458 24.8231 93.3432 25.0155 92.8018 25.3282C92.2603 25.6409 91.7927 26.0665 91.4307 26.576C91.0687 27.0855 90.8209 27.667 90.7041 28.2808C90.5874 28.8946 90.6044 29.5264 90.754 30.1331C90.2301 29.3914 88.8742 29.5521 88.5386 30.3958C88.2402 31.1457 88.8994 32.0542 89.6751 32.1205C90.6901 33.3728 91.8525 34.7019 93.4427 34.9545C93.9549 35.0359 94.5307 34.9763 94.9048 34.6174C95.2789 34.2584 95.308 33.5408 94.8642 33.2726C96.8627 34.0657 98.0343 36.2243 98.3308 38.3521C98.6273 40.4798 98.2171 42.6327 97.9468 44.7639C97.6764 46.8952 97.56 49.1371 98.3964 51.1162C99.3847 53.4546 101.66 55.1305 104.143 55.668C106.626 56.2054 109.27 55.6801 111.518 54.4967C113.766 53.3131 115.64 51.5063 117.171 49.4808C114.534 51.3518 110.885 52.0527 108.01 50.5705Z" fill="#2F2E41"/>
<path d="M78.8054 82.2692L73.5879 117.863L102.069 115.719L93.5439 80.7026L78.8054 82.2692Z" fill="#FFB8B8"/>
<path d="M108.6 156.697C108.574 156.82 108.542 156.941 108.504 157.06C105.217 158.247 101.855 159.218 98.4412 159.964C97.7216 157.6 96.3421 153.123 95.1339 149.462C94.1469 146.473 93.2753 144.028 92.9713 143.722C92.1267 142.882 92.9713 141.762 92.9713 141.762L89.3638 130.557L87.7246 125.467L87.1628 136.16L86.347 151.649L86.3239 152.084C86.3239 152.084 85.2003 155.445 85.7621 156.007C86.3239 156.568 85.2003 158.811 85.2003 158.811L84.8771 161.754C84.4653 161.775 84.0555 161.791 83.6419 161.802L83.5014 161.846L83.386 161.81C82.83 161.827 82.272 161.838 81.7121 161.842C81.4755 161.844 81.2388 161.846 81.0002 161.846C80.8886 161.846 80.7771 161.846 80.6655 161.844C79.0512 161.839 77.4492 161.786 75.8593 161.687L74.8723 153.662L73.8526 145.369C73.8526 145.369 74.9743 143.13 73.8526 142.01C73.1773 141.335 73.5159 140.355 73.8949 139.682C73.6602 138.642 73.3389 137.043 72.906 134.675C72.8906 134.596 72.8772 134.515 72.8618 134.434C72.7252 133.683 72.6027 132.946 72.4943 132.224C72.3019 130.953 72.1518 129.733 72.0364 128.564C71.6449 124.779 71.5908 120.966 71.8748 117.171C71.9825 115.822 72.1172 114.834 72.2057 114.263C72.2134 114.209 72.2961 113.907 72.4308 113.431C72.6424 112.668 72.9907 111.457 73.3812 110.102C73.589 109.383 73.8084 108.623 74.0258 107.868C74.4048 106.559 74.7819 105.262 75.0859 104.212V104.206C75.3533 103.286 75.5669 102.559 75.6785 102.178C75.7324 101.992 75.7612 101.89 75.7612 101.89C75.7612 101.89 75.8209 101.877 75.9344 101.852C76.2865 101.771 77.1561 101.577 78.3605 101.317C79.6169 101.052 81.235 100.716 83.0127 100.373C84.5346 100.081 86.1739 99.7834 87.8035 99.5162C88.3884 99.422 88.9733 99.3298 89.5505 99.2433C93.1156 98.7127 96.3883 98.411 97.939 98.755C98.0464 98.7778 98.1524 98.8067 98.2565 98.8415C98.3617 98.8763 98.463 98.9221 98.5586 98.978C98.6067 99.0068 99.0723 100.821 99.6668 103.186C99.6726 103.209 99.6783 103.234 99.6841 103.257C99.863 103.972 100.054 104.733 100.248 105.511C100.446 106.305 100.646 107.115 100.842 107.903C101.425 110.244 101.964 112.41 102.241 113.471C102.347 113.882 102.416 114.127 102.432 114.154C103.082 115.236 103.613 117.888 104.044 121.216C104.429 124.185 104.735 127.693 104.971 131.101C105.089 132.787 105.189 134.45 105.273 136.01C105.56 141.262 105.675 145.362 105.675 145.362C105.675 145.362 106.104 148.779 106.957 150.392C107.062 150.6 107.196 150.793 107.355 150.963C107.923 151.53 107.988 152.022 107.913 152.372C107.88 152.537 107.812 152.693 107.713 152.829C107.69 152.863 107.665 152.894 107.638 152.924C107.565 153.271 107.577 153.632 107.675 153.974C107.773 154.315 107.953 154.628 108.2 154.884C108.744 155.432 108.7 156.216 108.6 156.697Z" fill="#2F2E41"/>
<path d="M99.27 70.8529C99.2373 70.6107 99.2026 70.3666 99.1661 70.1206C99.1449 69.9629 99.1199 69.8053 99.0968 69.6496C98.8525 68.0773 99.8703 66.7318 98.5523 65.6438C98.2442 65.3933 97.993 65.0801 97.8155 64.725L97.5134 64.1176L96.9574 62.9912L95.7414 60.5424L95.5317 60.1215C95.4723 60.0019 95.4041 59.8869 95.3277 59.7774C95.1004 59.4477 94.8044 59.171 94.46 58.9662L91.4393 57.1671C90.9725 56.8904 90.5967 56.4835 90.3581 55.9965L90.283 55.8427C89.9502 55.1603 89.3537 53.5284 88.6476 52.8192L88.6457 52.8172C88.4918 52.6415 88.283 52.5229 88.0531 52.4808L85.0459 52.1829C84.565 52.1341 84.0796 52.211 83.6374 52.4061C83.1952 52.6012 82.8114 52.9078 82.5236 53.2958L82.4408 53.6707L81.9579 55.8677L81.931 55.8735C81.7886 55.9061 81.6462 55.9388 81.5058 55.9792C78.387 56.8307 77.0864 67.7236 77.0864 67.7236C77.0864 67.7236 74.9026 71.3238 75.7608 73.5516L77.2923 77.1441C77.3041 77.1713 77.3131 77.1997 77.3192 77.2287C77.4577 77.6198 77.5063 78.0369 77.4616 78.4493L77.4635 78.5896L77.4673 78.8991L77.4789 79.6929L77.5154 82.3263L77.5616 85.6228L77.602 88.4311L77.6155 89.1788L75.0931 100.145C75.0518 100.505 75.0821 100.87 75.1821 101.219C75.2821 101.567 75.45 101.893 75.6761 102.176L75.678 102.178C75.7334 102.249 75.7925 102.317 75.855 102.382L75.8569 102.384C75.9166 102.446 75.9781 102.501 76.0416 102.557C76.3454 102.823 76.7036 103.018 77.0911 103.131C77.4787 103.244 77.8861 103.27 78.285 103.209L78.6217 103.157H78.6236L83.5106 102.424H83.5144L84.0801 102.34H84.0839L89.5538 101.519H89.5577L90.4947 101.377C90.5697 101.367 90.6428 101.358 90.7179 101.352L95.726 101.008C95.841 101 95.9553 100.985 96.0685 100.964H96.0704C96.5107 100.877 96.9236 100.685 97.2743 100.405C97.6249 100.125 97.9029 99.7647 98.0848 99.3548C98.1605 99.1905 98.2179 99.0184 98.2561 98.8416C98.2995 98.6503 98.3233 98.4552 98.3272 98.2591L98.383 93.546L98.5735 78.3148C98.5774 77.8065 98.7226 77.3094 98.9929 76.8789C99.6875 75.7717 99.6086 73.3998 99.27 70.8529Z" fill="#C6BFFF"/>
<path d="M90.8734 111.532C90.8029 111.144 90.8186 110.745 90.9193 110.363C91.02 109.981 91.2032 109.626 91.4561 109.323C91.7089 109.019 92.0253 108.775 92.3829 108.607C92.7405 108.439 93.1306 108.352 93.5258 108.351L96.6503 99.2763L99.6967 103.226L96.2626 111.238C96.2204 111.901 95.9361 112.526 95.4636 112.994C94.9911 113.462 94.3632 113.74 93.6989 113.777C93.0346 113.813 92.38 113.604 91.8593 113.191C91.3385 112.777 90.9877 112.187 90.8734 111.532H90.8734Z" fill="#9E616A"/>
<path d="M102.795 92.4407L102.093 94.2091L101.112 105.148C100.807 105.225 100.516 105.347 100.248 105.511C99.666 105.871 99.223 106.416 98.9907 107.059C98.7584 107.702 98.7505 108.404 98.9683 109.052L99.2569 109.917L97.1117 109.258L93.585 108.176L89.4272 106.899L90.1314 104.618C90.2944 104.093 90.3274 103.537 90.2275 102.998C90.1276 102.458 89.8979 101.95 89.5581 101.519C89.4739 101.412 89.3834 101.31 89.2868 101.213L89.5504 99.2433L89.7062 98.0727L87.8034 99.5162L84.0824 102.34H84.0805L83.5879 102.715C83.5879 102.715 83.561 102.615 83.511 102.424C83.4167 102.057 83.2397 101.354 83.0127 100.374C81.8883 95.4885 81.0602 90.5402 80.5326 85.5555C80.4172 84.433 80.3171 83.2835 80.2363 82.1168C80.1536 80.9154 80.092 79.6968 80.0593 78.4704C79.7823 68.4886 81.3176 58.0244 87.7341 52.6731C88.0444 52.6752 88.3526 52.7245 88.648 52.8192C91.2454 53.6169 94.0948 57.515 96.065 60.3041C96.5306 60.9634 96.9462 61.5592 97.2983 62.0379L98.1506 63.1969C99.3143 64.7806 100.12 66.5979 100.511 68.5232C100.594 68.9307 100.659 69.3434 100.706 69.7611L101.637 78.3186V80.5233L102.795 92.4407Z" fill="#C6BFFF"/>
<path d="M4.69238 107.781C6.3638 109.76 8.17163 111.619 10.1026 113.346L152.012 113.538C153.943 111.811 155.751 109.952 157.423 107.973L4.69238 107.781Z" fill="#CCCCCC"/>
<path d="M81.7119 161.842C81.4752 161.844 81.2386 161.846 81 161.846C80.8884 161.846 80.7768 161.846 80.6652 161.844C79.051 161.839 77.449 161.786 75.8591 161.687L75.8976 162L75.761 161.681L72.7114 154.588L74.8721 153.662L78.8355 151.961L80.038 156.091L81.1886 160.047L81.531 161.22L81.7119 161.842Z" fill="#FFB6B6"/>
<path d="M67.5841 153.608L66.7222 160.591C64.7616 160.245 62.8267 159.828 60.9175 159.34V153.61L67.5841 153.608Z" fill="#FFB6B6"/>
<path d="M37.1871 140.737V148.997C36.0173 148.245 34.8693 147.463 33.7432 146.652V140.737H37.1871Z" fill="#CACACA"/>
<path d="M50.5298 139.361V143.488C50.5295 144.248 50.2273 144.977 49.6894 145.515C49.1515 146.052 48.422 146.355 47.6611 146.355H33.3312C30.5956 144.363 27.9873 142.201 25.5217 139.884C24.3539 138.788 23.22 137.658 22.1201 136.493H47.6611C48.4219 136.494 49.1513 136.796 49.6891 137.334C50.2269 137.872 50.5293 138.601 50.5298 139.361Z" fill="#3F3D56"/>
<path d="M84.1133 161.652L83.6419 161.802L83.5014 161.846L83.386 161.81C82.83 161.827 82.272 161.838 81.7121 161.842C81.4755 161.844 81.2388 161.846 81.0002 161.846C80.8886 161.846 80.7771 161.846 80.6655 161.844C79.0512 161.839 77.4492 161.786 75.8593 161.687L75.8978 162L75.7612 161.681C75.1917 161.642 74.6241 161.602 74.0585 161.552L69.5814 154.061L60.3674 138.648L59.2995 136.862C59.2995 136.862 55.6574 137.938 50.5031 138.971C46.6185 139.751 41.8759 140.503 37.1871 140.749C36.0308 140.81 34.8783 140.841 33.7432 140.831C30.8091 140.812 27.9904 140.537 25.522 139.884C24.3541 138.788 23.2202 137.658 22.1203 136.493C20.2454 134.512 18.4718 132.438 16.8063 130.279C16.7839 129.486 16.8244 128.693 16.9275 127.907C16.9448 127.776 16.9621 127.643 16.9833 127.509L17.5085 118.598L21.4104 118.082L27.3478 117.298L33.7797 116.449L34.4878 121.988C34.4878 121.988 39.4959 121.734 45.8412 121.819C56.0326 121.957 69.6699 122.972 71.5169 127.328C71.6901 127.737 71.8632 128.151 72.0364 128.564C75.6227 137.146 78.9166 146.29 81.1542 152.787C81.5813 154.025 81.968 155.165 82.3124 156.187C83.4495 159.565 84.1133 161.652 84.1133 161.652Z" fill="#2F2E41"/>
<path d="M73.2038 132.239C73.1096 133.054 73.0102 133.866 72.9056 134.675C71.9821 141.827 70.7103 148.658 69.581 154.061C69.0288 156.699 68.5093 158.994 68.0802 160.822C67.6262 160.751 67.1734 160.674 66.7219 160.591C64.7614 160.245 62.8265 159.828 60.9172 159.34C60.3497 159.196 59.7853 159.045 59.2241 158.888L60.367 138.648L60.7441 131.953L72.4939 132.224L73.2038 132.239Z" fill="#2F2E41"/>
<path d="M92.0966 100.933C92.5865 100.659 93.1305 100.497 93.6903 100.456C94.25 100.415 94.8118 100.498 95.3362 100.698C95.8606 100.897 96.3347 101.21 96.7252 101.612C97.1158 102.015 97.4132 102.498 97.5965 103.028L111.238 103.044L107.329 108.952L94.9736 108.031C94.0621 108.28 93.091 108.186 92.2443 107.767C91.3975 107.348 90.734 106.633 90.3793 105.758C90.0247 104.883 90.0036 103.909 90.3201 103.02C90.6366 102.13 91.2687 101.388 92.0966 100.933L92.0966 100.933Z" fill="#FFB6B6"/>
<path d="M99.5342 108.922L124.103 111.361L124.168 111.278C124.292 111.119 136.59 95.3918 138.656 91.6478C139.928 89.3985 140.391 86.7823 139.969 84.2338L139.954 84.1715L139.906 84.1302C138.904 83.2913 137.645 82.8186 136.338 82.7899C135.031 82.7613 133.754 83.1785 132.716 83.9727C127.726 87.8339 123.702 92.8009 120.963 98.4818L119.408 101.715L101.378 102.488L99.5342 108.922Z" fill="#C6BFFF"/>
<path d="M90.058 153.243L86.437 161.666C85.9175 161.702 85.3974 161.732 84.8767 161.754C84.4649 161.775 84.0551 161.79 83.6414 161.802L83.501 161.846L83.3856 161.81C82.8295 161.827 82.2716 161.838 81.7117 161.842C81.475 161.844 81.2384 161.846 80.9998 161.846C80.8882 161.846 80.7766 161.846 80.665 161.844L80.9055 161.022L81.1884 160.047L82.312 156.187L83.9339 150.615L86.3466 151.649L90.058 153.243Z" fill="#FFB6B6"/>
<path d="M116.149 153.85C114.289 154.748 112.39 155.574 110.454 156.328L108.561 153.147L114.664 150.469L116.149 153.85Z" fill="#FFB6B6"/>
<path d="M129.026 139.392V146.092C127.901 146.923 126.753 147.723 125.583 148.495V139.392H129.026Z" fill="#CACACA"/>
<path d="M141.125 135.147C140.157 136.22 139.16 137.265 138.135 138.282C135.721 140.684 133.158 142.931 130.462 145.01H115.108C114.701 145.01 114.298 144.923 113.927 144.755C113.555 144.587 113.224 144.342 112.955 144.035L112.954 144.03C112.633 143.669 112.411 143.232 112.307 142.761L112.305 142.757C112.262 142.555 112.24 142.349 112.24 142.142V138.015C112.24 137.255 112.543 136.526 113.08 135.989C113.618 135.451 114.348 135.148 115.108 135.147H141.125Z" fill="#3F3D56"/>
<path d="M147.451 119.04L145.787 126.163C145.949 127.195 146.004 128.241 145.948 129.285C145.159 130.342 144.346 131.378 143.507 132.393C142.733 133.329 141.939 134.247 141.125 135.147C140.157 136.22 139.16 137.265 138.135 138.282C135.464 139.12 132.317 139.463 129.027 139.486C127.892 139.495 126.739 139.465 125.583 139.403C120.894 139.157 116.151 138.405 112.267 137.625C111.24 137.421 110.274 137.214 109.385 137.012C107.701 136.633 106.293 136.28 105.273 136.01C104.125 135.711 103.47 135.516 103.47 135.516L99.101 142.826L95.1338 149.462L87.9053 161.554C87.4167 161.598 86.9273 161.635 86.4373 161.666C85.9179 161.702 85.3978 161.732 84.877 161.754C84.4653 161.775 84.0554 161.79 83.6418 161.802L83.5013 161.846L83.3859 161.81L81.5312 161.22L80.9059 161.022L78.6567 160.307C78.6567 160.307 79.1589 158.727 80.0382 156.091C80.3614 155.124 80.7346 154.013 81.1541 152.787C82.6683 148.355 84.7673 142.402 87.1627 136.16C87.8726 134.307 88.6076 132.428 89.3637 130.557C89.9832 129.021 90.6143 127.491 91.2531 125.982C92.3632 123.366 97.7273 121.956 104.044 121.216C104.365 121.179 104.688 121.142 105.013 121.108C108.232 120.77 111.647 120.595 114.841 120.514C116.44 120.474 117.983 120.458 119.418 120.456C119.882 120.456 120.333 120.458 120.771 120.46H120.773C121.956 120.466 123.045 120.483 124.003 120.502C124.19 120.506 124.371 120.512 124.548 120.516H124.55C124.669 120.518 124.786 120.522 124.902 120.524C126.997 120.577 128.282 120.643 128.282 120.643L128.781 116.737L128.882 115.949L128.979 115.199V115.197L128.99 115.103L129.069 115.101L130.454 115.074L142.098 114.847L148.459 114.722L147.451 119.04Z" fill="#2F2E41"/>
<path d="M117.585 153.139C117.11 153.381 116.631 153.619 116.15 153.85C114.289 154.748 112.391 155.574 110.455 156.328C109.902 156.545 109.348 156.754 108.788 156.956C108.727 156.87 108.663 156.783 108.6 156.697C105.929 153.035 102.535 148.203 99.1011 142.826C97.6639 140.577 96.219 138.232 94.8164 135.837L104.971 131.101L106.11 130.571L109.385 137.012L112.305 142.757L112.956 144.035L117.585 153.139Z" fill="#2F2E41"/>
<path d="M132.325 73.0521C137.492 73.0521 141.68 68.8675 141.68 63.7055C141.68 58.5435 137.492 54.3589 132.325 54.3589C127.158 54.3589 122.969 58.5435 122.969 63.7055C122.969 68.8675 127.158 73.0521 132.325 73.0521Z" fill="#FFB6B6"/>
<path d="M132.015 72.6463C134.203 73.6948 136.895 73.3397 138.983 72.1061C141.071 70.8725 142.608 68.8606 143.682 66.6873C144.469 65.0956 145.04 63.2728 144.585 61.557C144.129 59.8413 142.312 58.4036 140.61 58.9118C141.776 57.9736 141.64 56.0387 140.698 54.8762C139.755 53.7136 138.268 53.1546 136.831 52.7333C134.746 52.1218 132.555 51.6902 130.405 52.003C128.254 52.3157 126.137 53.4789 125.125 55.4003C124.422 55.5811 123.68 55.5241 123.013 55.2381C122.347 54.9522 121.794 54.4534 121.442 53.82C121.207 54.4289 121.18 55.098 121.365 55.7238C121.549 56.3495 121.935 56.8971 122.463 57.2817L119.55 55.703C118.808 56.7312 119.482 58.2994 120.61 58.8819C121.737 59.4643 123.099 59.309 124.329 58.9978C125.56 58.6865 124.108 61.2821 125.377 61.3071C126.646 61.3321 128.018 61.9955 128.382 63.2102C128.572 63.8465 128.461 64.5298 128.517 65.1914C128.573 65.8531 128.891 66.5872 129.532 66.7596C129.938 66.8685 130.382 66.7242 130.784 66.8451C131.282 66.995 131.586 67.5277 131.63 68.046C131.674 68.5643 131.511 69.0753 131.351 69.5701C130.716 71.5253 132.753 70.4294 132.118 72.3845L132.015 72.6463Z" fill="#2F2E41"/>
<path d="M150.371 100.254C150.294 92.5349 149.944 87.2739 149.332 84.6156C147.689 77.469 140.099 76.1658 138.91 76.0043C138.783 75.6675 138.589 75.3602 138.338 75.1018C138.088 74.8433 137.786 74.6391 137.453 74.5019C137.12 74.3647 136.763 74.2974 136.403 74.3043C136.043 74.3111 135.688 74.3918 135.36 74.5415L129.967 77.0096C128.873 77.5118 127.894 78.2334 127.091 79.1295C126.288 80.0256 125.677 81.0771 125.298 82.2187L124.497 84.6598L124.095 101.042L125.423 107.933L125.425 107.937L126.319 112.579L125.704 113.502L122.189 118.769L122.129 118.861L122.127 118.863L121.973 119.092C122.187 119.209 122.398 119.324 122.606 119.439C123.145 119.735 123.67 120.026 124.182 120.31C124.305 120.379 124.426 120.447 124.547 120.516H124.549C124.626 120.558 124.703 120.6 124.778 120.643C126.698 121.715 128.446 122.709 130.021 123.624C130.241 123.751 130.458 123.878 130.671 124.003C137.944 128.253 141.631 130.855 143.506 132.393C144.345 131.378 145.159 130.342 145.948 129.285C146.664 128.329 147.357 127.357 148.028 126.369C148.145 125.596 148.224 124.823 148.301 124.066C148.393 123.155 148.49 122.211 148.651 121.283C148.722 120.871 148.449 120.481 148.186 120.104C147.941 119.753 147.71 119.422 147.758 119.111C147.808 118.79 148.163 118.44 148.507 118.1C148.882 117.727 149.271 117.342 149.327 116.937C149.48 115.807 149.617 114.672 149.736 113.535C149.933 111.683 150.083 109.827 150.188 107.964C150.337 105.392 150.398 102.822 150.371 100.254Z" fill="#C6BFFF"/>
<path d="M114.759 127.503C114.917 126.965 115.192 126.468 115.563 126.048C115.935 125.628 116.394 125.294 116.908 125.07C117.423 124.846 117.98 124.738 118.541 124.753C119.102 124.767 119.653 124.905 120.156 125.155L129.913 115.631L131.257 122.585L121.785 130.563C121.308 131.378 120.549 131.989 119.65 132.282C118.752 132.575 117.778 132.528 116.912 132.151C116.045 131.774 115.348 131.092 114.951 130.236C114.554 129.379 114.486 128.407 114.759 127.503L114.759 127.503Z" fill="#FFB6B6"/>
<path d="M125.668 128.012L144.929 112.58L144.917 112.475C144.895 112.275 142.666 92.442 141.52 88.3228C140.853 85.827 139.352 83.6343 137.265 82.1087L137.211 82.074L137.148 82.0787C135.844 82.1798 134.614 82.7216 133.66 83.6147C132.707 84.5079 132.086 85.6991 131.901 86.992C131.04 93.2389 131.644 99.6002 133.665 105.574L134.819 108.97L122.479 122.126L125.668 128.012Z" fill="#C6BFFF"/>
<path d="M27.0349 72.8844C31.6453 72.8844 35.3828 69.1505 35.3828 64.5444C35.3828 59.9384 31.6453 56.2045 27.0349 56.2045C22.4245 56.2045 18.687 59.9384 18.687 64.5444C18.687 69.1505 22.4245 72.8844 27.0349 72.8844Z" fill="#A0616A"/>
<path d="M15.8192 128.067L15.7736 128.003C13.3419 124.602 16.9993 116.429 17.5509 115.244C16.8958 115.031 16.3348 114.599 15.9632 114.02C15.5916 113.44 15.4324 112.75 15.5129 112.067L15.7507 110.048L15.9986 108.067L14.2228 106.293L14.2178 106.249L13.1959 97.3154L11.7101 91.3821C11.1503 89.1391 11.198 86.7876 11.8484 84.5692C12.4987 82.3507 13.7283 80.345 15.4109 78.7582L18.8454 78.2133L23.0193 74.1955H29.7502L32.0581 76.3984C36.5955 80.1142 37.6726 78.5 42.7891 85.4948L39.1257 95.1373L41.1733 109.359L41.1746 111.933L42.2411 113.117C42.6253 113.543 42.9044 114.054 43.0563 114.607C43.2082 115.161 43.2286 115.742 43.116 116.304L42.9757 117.005C43.5178 117.237 43.9963 117.596 44.371 118.051C44.7457 118.505 45.0058 119.044 45.1293 119.62L45.5039 121.366C45.8244 121.788 47.9397 124.606 47.9397 125.376C47.9397 125.492 47.8542 125.604 47.6708 125.728C46.2293 126.703 38.2617 128.691 34.7353 127.282C30.979 125.781 16.0472 128.032 15.8968 128.055L15.8192 128.067Z" fill="#3F3D56"/>
<path d="M11.5781 94.2359L18.5192 92.8784C21.0862 96.7082 22.4643 107.181 22.4643 107.181L30.1384 123.081C30.6101 123.367 30.9974 123.773 31.2609 124.257C31.5244 124.742 31.6547 125.288 31.6384 125.839C31.6222 126.39 31.4601 126.927 31.1685 127.395C30.877 127.863 30.4664 128.246 29.9787 128.504C29.491 128.762 28.9435 128.886 28.392 128.864C27.8406 128.842 27.3048 128.674 26.8393 128.378C26.3738 128.082 25.9952 127.668 25.7421 127.178C25.489 126.688 25.3704 126.14 25.3983 125.589L15.3893 106.75L11.5781 94.2359Z" fill="#A0616A"/>
<path d="M11.5396 95.8811L11.3423 85.5745L14.6087 81.2087C15.2531 80.354 16.1239 79.6963 17.1228 79.3101C18.1217 78.9238 19.2088 78.8244 20.2612 79.023C21.6861 79.3019 22.9518 80.1108 23.8025 81.2863C24.6532 82.4619 25.0253 83.9163 24.8437 85.3554C24.2893 89.7197 23.0305 95.1812 20.1828 96.4168L20.154 96.4294L23.1054 106.742L12.1602 108.269L11.5396 95.8811Z" fill="#3F3D56"/>
<path d="M52.7632 94.9704C52.7632 94.9704 44.4334 88.4656 39.9156 87.5312L35.917 93.3598L46.7311 99.9807L67.7856 106.063C68.1543 106.472 68.6247 106.776 69.1492 106.945C69.6737 107.113 70.2336 107.141 70.7719 107.023C71.3102 106.906 71.8079 106.648 72.2144 106.277C72.6209 105.905 72.9217 105.433 73.0864 104.907C73.251 104.382 73.2736 103.822 73.1518 103.286C73.03 102.749 72.7682 102.254 72.393 101.85C72.0177 101.447 71.5424 101.151 71.0153 100.99C70.4881 100.83 69.9279 100.812 69.3916 100.938L52.7632 94.9704Z" fill="#A0616A"/>
<path d="M38.1083 96.2776L29.4274 90.7052L27.6147 85.5643C27.2625 84.5537 27.2003 83.4649 27.435 82.4208C27.6697 81.3768 28.192 80.4191 28.943 79.6561C29.9678 78.6286 31.345 78.0282 32.796 77.9764C34.2471 77.9245 35.6636 78.4251 36.7594 79.3768C40.0801 82.2659 44.3596 83.2342 43.8023 86.2855L45.4011 86.5188L53.5768 92.722L48.7555 102.657L38.1083 96.2776Z" fill="#3F3D56"/>
<path d="M17.566 59.0645C18.5033 57.6157 20.2624 56.6501 21.9677 56.9215C22.1264 55.8342 22.5806 54.8113 23.2809 53.9641C23.9813 53.117 24.9008 52.478 25.9395 52.1167C26.9781 51.7555 28.0961 51.6859 29.1716 51.9155C30.2471 52.1451 31.2389 52.665 32.0391 53.4188C32.5412 53.0197 33.271 52.9987 33.867 53.236C34.4539 53.5026 34.9645 53.9121 35.352 54.4269C36.3305 55.646 36.9599 57.1074 37.173 58.6554C37.3861 60.2035 37.1751 61.7804 36.5624 63.2181C36.7708 62.4612 36.0115 61.7491 35.2443 61.5793C34.4773 61.4094 33.6725 61.5701 32.8946 61.4595C31.8975 61.3178 31.0012 60.7399 30.0026 60.6099C29.1633 60.5006 28.3193 60.7155 27.5008 60.931C26.6824 61.1465 25.8406 61.3662 25.0001 61.2665C24.1596 61.1668 23.0769 64.3491 23.0914 66.5905C23.0942 67.0152 23.0066 67.5606 22.5911 67.6507C22.0794 67.7617 21.7829 67.0562 21.2959 66.8639C20.862 66.6926 20.3418 67.0101 20.1907 67.451C20.1293 67.6766 20.1228 67.9135 20.1716 68.1421C20.2203 68.3707 20.3231 68.5843 20.4712 68.7653C20.7706 69.1239 21.1259 69.4319 21.5236 69.6773L21.323 69.844C20.9894 70.2844 20.2973 70.3034 19.8164 70.031C19.3355 69.7586 19.0195 69.2738 18.7346 68.8005C17.8449 67.322 17.0645 65.7468 16.7505 64.0505C16.4365 62.3542 16.6287 60.5133 17.566 59.0645Z" fill="#2F2E41"/>
<path opacity="0.2" d="M90.8767 73.0801C91.7235 76.6045 92.1142 80.223 92.0392 83.8468C91.9671 87.4711 91.4365 91.0716 90.4602 94.5629C89.9092 96.5344 89.2143 98.4629 88.3809 100.333C88.2309 100.669 88.7281 100.963 88.8793 100.624C90.3839 97.2545 91.4478 93.7054 92.0448 90.0643C92.6441 86.4224 92.7785 82.7192 92.4448 79.0435C92.2559 76.9829 91.9178 74.9386 91.4333 72.9268C91.3464 72.5662 90.7896 72.7188 90.8767 73.0801H90.8767Z" fill="black"/>
<path opacity="0.2" d="M144.766 97.7425L139.941 109.51C139.165 111.403 138.411 113.309 137.603 115.189C136.876 116.883 136.046 118.583 134.821 119.979C133.585 121.388 131.922 122.532 130.023 122.755C129.658 122.798 129.654 123.375 130.023 123.332C131.758 123.128 133.313 122.266 134.569 121.074C135.927 119.785 136.885 118.144 137.666 116.459C138.537 114.581 139.278 112.639 140.063 110.725L142.53 104.708L145.323 97.8958C145.464 97.5526 144.906 97.4032 144.766 97.7425Z" fill="black"/>
<path d="M87.5724 108.423C87.6572 108.67 87.818 108.883 88.0317 109.033C88.2455 109.182 88.5012 109.26 88.7621 109.256L93.8591 109.125C94.1219 109.119 94.376 109.029 94.5834 108.868C94.7908 108.707 94.9404 108.483 95.0098 108.229L95.7311 100.524C95.987 100.64 96.2656 100.697 96.5464 100.691C96.7905 100.685 97.0309 100.631 97.254 100.532C97.4771 100.433 97.6785 100.291 97.8468 100.115C98.015 99.9379 98.1467 99.7298 98.2344 99.5022C98.3222 99.2747 98.3642 99.032 98.358 98.7882C98.3519 98.5445 98.2978 98.3042 98.1987 98.0814C98.0997 97.8585 97.9577 97.6572 97.7808 97.4892C97.6039 97.3211 97.3956 97.1895 97.1678 97.1019C96.94 97.0142 96.6972 96.9723 96.4531 96.9784C96.3409 96.978 96.2289 96.9896 96.1191 97.0131C95.9997 96.884 95.8546 96.7814 95.6931 96.7118C95.5316 96.6421 95.3572 96.6071 95.1813 96.6089L87.341 96.8111C87.2759 96.8135 87.2112 96.8215 87.1476 96.8351C86.9757 96.8671 86.8126 96.9356 86.6693 97.0358C86.5261 97.1361 86.406 97.2659 86.3172 97.4164C86.2283 97.5669 86.1728 97.7347 86.1543 97.9084C86.1358 98.0822 86.1548 98.2579 86.21 98.4237L87.5724 108.423ZM95.879 100.001L96.3922 98.1646C96.4506 97.9525 96.452 97.7287 96.3961 97.5159C96.421 97.5159 96.443 97.5041 96.4679 97.504C96.8198 97.4967 97.1603 97.6292 97.4146 97.8723C97.6689 98.1154 97.8164 98.4494 97.8246 98.8009C97.8329 99.1525 97.7012 99.493 97.4586 99.7477C97.2159 100.002 96.8821 100.151 96.5302 100.16C96.3027 100.167 96.0775 100.112 95.879 100.001Z" fill="#2F2E41"/>
<path d="M87.1475 96.8351C87.3145 97.7893 89.1925 98.46 91.4506 98.3435C93.5271 98.2479 95.225 97.5194 95.5361 96.6561C95.421 96.6221 95.3012 96.6061 95.1812 96.6088L87.3409 96.8111C87.2758 96.8135 87.2111 96.8215 87.1475 96.8351Z" fill="#3F3D56"/>
<path d="M70.5954 98.0393C70.6506 97.8734 70.6696 97.6977 70.6511 97.524C70.6326 97.3502 70.5771 97.1824 70.4882 97.0319C70.3994 96.8814 70.2793 96.7517 70.1361 96.6514C69.9928 96.5511 69.8297 96.4827 69.6578 96.4507C69.5942 96.4371 69.5294 96.4291 69.4644 96.4267L61.6241 96.2244C61.4482 96.2226 61.2738 96.2577 61.1123 96.3273C60.9508 96.3969 60.8057 96.4996 60.6863 96.6286C60.5765 96.6052 60.4645 96.5936 60.3523 96.5939C59.8594 96.5816 59.3819 96.7653 59.0246 97.1047C58.6674 97.4441 58.4597 97.9114 58.4474 98.4038C58.435 98.8962 58.6189 99.3733 58.9586 99.7302C59.2984 100.087 59.7661 100.295 60.259 100.307C60.5398 100.313 60.8184 100.255 61.0743 100.139L61.7956 107.845C61.865 108.098 62.0146 108.322 62.222 108.484C62.4294 108.645 62.6835 108.735 62.9463 108.74L68.0433 108.871C68.3042 108.876 68.5599 108.798 68.7737 108.648C68.9874 108.499 69.1482 108.285 69.233 108.039L70.5954 98.0393ZM60.2752 99.7754C59.9233 99.7662 59.5895 99.618 59.3468 99.3633C59.1042 99.1085 58.9725 98.768 58.9808 98.4165C58.989 98.0649 59.1365 97.731 59.3908 97.4879C59.6451 97.2447 59.9856 97.1123 60.3375 97.1196C60.3624 97.1196 60.3843 97.1314 60.4092 97.1315C60.3534 97.3443 60.3548 97.568 60.4132 97.7801L60.9264 99.6163C60.7279 99.7275 60.5027 99.7825 60.2752 99.7754Z" fill="#2F2E41"/>
<path d="M69.6576 96.4507C69.4906 97.4048 67.6126 98.0756 65.3545 97.959C63.278 97.8634 61.5801 97.135 61.269 96.2717C61.3842 96.2376 61.5039 96.2217 61.6239 96.2244L69.4642 96.4267C69.5293 96.4291 69.594 96.4371 69.6576 96.4507Z" fill="#3F3D56"/>
<path d="M62.2274 79.7124C62.6202 79.4257 63.0711 79.2285 63.5484 79.1348C64.0258 79.041 64.5178 79.053 64.99 79.1698C65.4622 79.2866 65.903 79.5055 66.2814 79.8109C66.6598 80.1163 66.9665 80.5009 67.18 80.9376L78.919 79.5188L76.1768 85.0124L65.4497 85.5175C64.6916 85.8272 63.8462 85.8484 63.0736 85.5769C62.3009 85.3055 61.6548 84.7604 61.2577 84.0448C60.8605 83.3293 60.7398 82.493 60.9185 81.6945C61.0973 80.896 61.563 80.1908 62.2274 79.7124L62.2274 79.7124Z" fill="#9E616A"/>
<path d="M100.511 68.5232C100.165 69.2018 99.7437 69.9918 99.2704 70.8529C97.6081 73.888 95.3243 77.8054 93.5658 80.7866C92.0631 83.3297 90.9414 85.1942 90.9107 85.2461L90.8626 85.3229L80.5326 85.5555L78.3162 85.6055L77.562 85.6228L69.4678 85.8054L69.5447 85.3249L70.3009 80.5617L70.3778 80.0754L77.4677 78.8991L80.0593 78.4704L85.8082 77.517L86.8068 74.5723C88.5655 69.3966 91.5045 64.7001 95.3916 60.8538C95.5051 60.7442 95.6206 60.6404 95.7418 60.5424C95.8476 60.4578 95.9554 60.3771 96.065 60.3041C96.5306 60.9634 96.9462 61.5592 97.2983 62.0379L98.1506 63.1969C99.3144 64.7806 100.12 66.5979 100.511 68.5232Z" fill="#C6BFFF"/>
<path d="M57.5583 86.126C57.6431 86.3725 57.8039 86.5859 58.0176 86.7355C58.2313 86.8851 58.487 86.9631 58.7479 86.9584L63.8449 86.8274C64.1077 86.8223 64.3619 86.7323 64.5693 86.571C64.7767 86.4096 64.9263 86.1856 64.9956 85.9322L65.7169 78.2268C65.9728 78.3426 66.2514 78.3998 66.5323 78.3942C67.0251 78.3818 67.4929 78.1744 67.8326 77.8175C68.1723 77.4606 68.3563 76.9835 68.3439 76.4911C68.3315 75.9988 68.1239 75.5315 67.7666 75.192C67.4094 74.8526 66.9318 74.6689 66.439 74.6812C66.3267 74.6809 66.2147 74.6925 66.1049 74.716C65.9855 74.5869 65.8404 74.4843 65.6789 74.4146C65.5174 74.345 65.3431 74.31 65.1672 74.3117L57.3268 74.514C57.2618 74.5164 57.1971 74.5244 57.1334 74.538C56.9615 74.57 56.7984 74.6384 56.6552 74.7387C56.5119 74.839 56.3919 74.9687 56.303 75.1193C56.2142 75.2698 56.1586 75.4376 56.1402 75.6113C56.1217 75.7851 56.1407 75.9608 56.1958 76.1266L57.5583 86.126ZM65.8648 77.7036L66.3781 75.8674C66.4365 75.6553 66.4378 75.4316 66.382 75.2188C66.4069 75.2187 66.4289 75.2069 66.4538 75.2069C66.8057 75.1996 67.1461 75.3321 67.4005 75.5752C67.6548 75.8183 67.8022 76.1522 67.8105 76.5038C67.8187 76.8554 67.6871 77.1959 67.4444 77.4506C67.2018 77.7053 66.8679 77.8536 66.516 77.8628C66.2885 77.8699 66.0634 77.8149 65.8648 77.7036Z" fill="#CCCCCC"/>
<path d="M57.1333 74.538C57.3003 75.4921 59.1783 76.1629 61.4365 76.0463C63.513 75.9508 65.2108 75.2223 65.5219 74.359C65.4068 74.325 65.2871 74.309 65.1671 74.3117L57.3267 74.514C57.2617 74.5164 57.197 74.5244 57.1333 74.538Z" fill="#3F3D56"/>
</g>
<defs>
<clipPath id="clip0_20_313">
<rect width="162" height="162" fill="white"/>
</clipPath>
</defs>
</svg>
