<svg width="50" height="50" viewBox="0 0 50 50" fill="none" xmlns="http://www.w3.org/2000/svg">
<circle cx="25" cy="25" r="25" fill="#0F2347" fill-opacity="0.03"/>
<path d="M34.6836 12.45C34.5502 12.45 34.4169 12.4167 34.3002 12.35C31.1002 10.7 28.3336 10 25.0169 10C21.7169 10 18.5836 10.7833 15.7336 12.35C15.3336 12.5667 14.8336 12.4167 14.6002 12.0167C14.4963 11.8217 14.473 11.5938 14.5353 11.3819C14.5976 11.1699 14.7406 10.9909 14.9336 10.8833C18.0336 9.2 21.4336 8.33333 25.0169 8.33333C28.5669 8.33333 31.6669 9.11666 35.0669 10.8667C35.4836 11.0833 35.6336 11.5833 35.4169 11.9833C35.351 12.1223 35.2472 12.2398 35.1175 12.3223C34.9877 12.4049 34.8373 12.4491 34.6836 12.45ZM10.8336 21.2C10.6799 21.2014 10.5289 21.1603 10.3972 21.0811C10.2656 21.0019 10.1584 20.8878 10.0876 20.7515C10.0169 20.6151 9.98525 20.4618 9.99629 20.3086C10.0073 20.1553 10.0606 20.0081 10.1502 19.8833C11.8002 17.55 13.9002 15.7167 16.4002 14.4333C21.6336 11.7333 28.3336 11.7167 33.5836 14.4167C36.0836 15.7 38.1836 17.5167 39.8336 19.8333C39.8975 19.9229 39.9431 20.0242 39.9676 20.1315C39.9922 20.2388 39.9953 20.3499 39.9767 20.4583C39.9581 20.5668 39.9182 20.6705 39.8593 20.7635C39.8004 20.8565 39.7237 20.9368 39.6336 21C39.2502 21.2667 38.7336 21.1833 38.4669 20.8C37.0073 18.734 35.0686 17.0526 32.8169 15.9C28.0336 13.45 21.9169 13.45 17.1502 15.9167C14.8836 17.0833 12.9836 18.75 11.4836 20.85C11.3502 21.0833 11.1002 21.2 10.8336 21.2ZM21.2502 41.3167C21.1409 41.318 21.0326 41.2964 20.9321 41.2534C20.8316 41.2103 20.7413 41.1467 20.6669 41.0667C19.2169 39.6167 18.4336 38.6833 17.3169 36.6667C16.1669 34.6167 15.5669 32.1167 15.5669 29.4333C15.5669 24.4833 19.8002 20.45 25.0002 20.45C30.2002 20.45 34.4336 24.4833 34.4336 29.4333C34.4336 29.9 34.0669 30.2667 33.6002 30.2667C33.1336 30.2667 32.7669 29.9 32.7669 29.4333C32.7669 25.4 29.2836 22.1167 25.0002 22.1167C20.7169 22.1167 17.2336 25.4 17.2336 29.4333C17.2336 31.8333 17.7669 34.05 18.7836 35.85C19.8502 37.7667 20.5836 38.5833 21.8669 39.8833C22.1836 40.2167 22.1836 40.7333 21.8669 41.0667C21.6836 41.2333 21.4669 41.3167 21.2502 41.3167ZM33.2002 38.2333C31.2169 38.2333 29.4669 37.7333 28.0336 36.75C25.5502 35.0667 24.0669 32.3333 24.0669 29.4333C24.0669 28.9667 24.4336 28.6 24.9002 28.6C25.3669 28.6 25.7336 28.9667 25.7336 29.4333C25.7336 31.7833 26.9336 34 28.9669 35.3667C30.1502 36.1667 31.5336 36.55 33.2002 36.55C33.6002 36.55 34.2669 36.5 34.9336 36.3833C35.3836 36.3 35.8169 36.6 35.9002 37.0667C35.9836 37.5167 35.6836 37.95 35.2169 38.0333C34.2669 38.2167 33.4336 38.2333 33.2002 38.2333ZM29.8502 41.6667C29.7836 41.6667 29.7002 41.65 29.6336 41.6333C26.9836 40.9 25.2502 39.9167 23.4336 38.1333C22.2824 36.9966 21.3695 35.6417 20.7485 34.1478C20.1275 32.6539 19.8108 31.0511 19.8169 29.4333C19.8169 26.7333 22.1169 24.5333 24.9502 24.5333C27.7836 24.5333 30.0836 26.7333 30.0836 29.4333C30.0836 31.2167 31.6336 32.6667 33.5502 32.6667C35.4669 32.6667 37.0169 31.2167 37.0169 29.4333C37.0169 23.15 31.6002 18.05 24.9336 18.05C20.2002 18.05 15.8669 20.6833 13.9169 24.7667C13.2669 26.1167 12.9336 27.7 12.9336 29.4333C12.9336 30.7333 13.0502 32.7833 14.0502 35.45C14.2169 35.8833 14.0002 36.3667 13.5669 36.5167C13.1336 36.6833 12.6502 36.45 12.5002 36.0333C11.6971 33.9255 11.2848 31.689 11.2836 29.4333C11.2836 27.4333 11.6669 25.6167 12.4169 24.0333C14.6336 19.3833 19.5502 16.3667 24.9336 16.3667C32.5169 16.3667 38.6836 22.2167 38.6836 29.4167C38.6836 32.1167 36.3836 34.3167 33.5502 34.3167C30.7169 34.3167 28.4169 32.1167 28.4169 29.4167C28.4169 27.6333 26.8669 26.1833 24.9502 26.1833C23.0336 26.1833 21.4836 27.6333 21.4836 29.4167C21.4836 32.2667 22.5836 34.9333 24.6002 36.9333C26.1836 38.5 27.7002 39.3667 30.0502 40.0167C30.5002 40.1333 30.7502 40.6 30.6336 41.0333C30.5502 41.4167 30.2002 41.6667 29.8502 41.6667Z" fill="#0F2347" fill-opacity="0.2"/>
</svg>
