<svg width="89" height="28" viewBox="0 0 89 28" fill="none" xmlns="http://www.w3.org/2000/svg">
<path d="M41.37 14.025H38.43V18H37.275V7.62H41.115C42.225 7.62 43.055 7.875 43.605 8.385C44.155 8.885 44.43 9.68 44.43 10.77C44.43 12.38 43.795 13.385 42.525 13.785L44.52 18H43.245L41.37 14.025ZM38.43 13.005H41.13C42.54 13.005 43.245 12.275 43.245 10.815C43.245 9.365 42.535 8.64 41.115 8.64H38.43V13.005Z" fill="#0F2347" fill-opacity="0.35"/>
<path d="M51.4232 17.07L51.8582 17.025L51.8882 17.91C51.3182 17.99 50.7882 18.05 50.2982 18.09C49.8182 18.13 49.3732 18.15 48.9632 18.15C47.8832 18.15 47.1182 17.84 46.6682 17.22C46.2182 16.59 45.9932 15.615 45.9932 14.295C45.9932 11.665 47.0382 10.35 49.1282 10.35C50.1482 10.35 50.9032 10.635 51.3932 11.205C51.8932 11.765 52.1432 12.65 52.1432 13.86L52.0832 14.715H47.1332C47.1332 15.555 47.2832 16.175 47.5832 16.575C47.8832 16.965 48.4082 17.16 49.1582 17.16C49.9082 17.16 50.6632 17.13 51.4232 17.07ZM47.1182 13.815H51.0182C51.0182 12.895 50.8682 12.245 50.5682 11.865C50.2782 11.485 49.8032 11.295 49.1432 11.295C48.4732 11.295 47.9682 11.495 47.6282 11.895C47.2982 12.295 47.1282 12.935 47.1182 13.815Z" fill="#0F2347" fill-opacity="0.35"/>
<path d="M56.7914 21.525C56.1914 21.525 55.6864 21.485 55.2764 21.405C54.8664 21.335 54.5314 21.21 54.2714 21.03C54.0214 20.86 53.8414 20.63 53.7314 20.34C53.6214 20.05 53.5664 19.69 53.5664 19.26C53.5664 19.05 53.5864 18.865 53.6264 18.705C53.6764 18.555 53.7464 18.405 53.8364 18.255C53.9364 18.115 54.0614 17.98 54.2114 17.85C54.3614 17.71 54.5414 17.56 54.7514 17.4C54.4714 17.21 54.3314 16.865 54.3314 16.365C54.3314 16.195 54.4564 15.88 54.7064 15.42L54.8414 15.18C54.0514 14.82 53.6564 14.065 53.6564 12.915C53.6564 11.205 54.5914 10.35 56.4614 10.35C56.9614 10.35 57.4064 10.4 57.7964 10.5L58.0214 10.545L60.2414 10.485V11.445L58.8164 11.415C59.1464 11.745 59.3114 12.245 59.3114 12.915C59.3114 13.855 59.0764 14.515 58.6064 14.895C58.1464 15.265 57.4164 15.45 56.4164 15.45C56.1264 15.45 55.8814 15.43 55.6814 15.39C55.5014 15.82 55.4114 16.105 55.4114 16.245C55.4114 16.555 55.5064 16.745 55.6964 16.815C55.9064 16.895 56.4814 16.935 57.4214 16.935C57.9014 16.935 58.3114 16.97 58.6514 17.04C58.9914 17.1 59.2714 17.215 59.4914 17.385C59.7114 17.555 59.8714 17.78 59.9714 18.06C60.0714 18.35 60.1214 18.71 60.1214 19.14C60.1214 20.73 59.0114 21.525 56.7914 21.525ZM54.7814 12.915C54.7814 13.515 54.9114 13.94 55.1714 14.19C55.4414 14.43 55.8814 14.55 56.4914 14.55C57.1014 14.55 57.5364 14.425 57.7964 14.175C58.0564 13.925 58.1864 13.5 58.1864 12.9C58.1864 12.3 58.0564 11.88 57.7964 11.64C57.5364 11.39 57.1014 11.265 56.4914 11.265C55.8814 11.265 55.4414 11.39 55.1714 11.64C54.9114 11.89 54.7814 12.315 54.7814 12.915ZM54.6764 19.17C54.6764 19.44 54.7114 19.665 54.7814 19.845C54.8514 20.025 54.9664 20.17 55.1264 20.28C55.2864 20.39 55.4964 20.465 55.7564 20.505C56.0264 20.555 56.3614 20.58 56.7614 20.58C57.5614 20.58 58.1314 20.47 58.4714 20.25C58.8114 20.03 58.9814 19.66 58.9814 19.14C58.9814 18.89 58.9514 18.685 58.8914 18.525C58.8414 18.365 58.7464 18.24 58.6064 18.15C58.4664 18.06 58.2764 18 58.0364 17.97C57.7964 17.94 57.4964 17.925 57.1364 17.925L55.5164 17.85C55.1864 18.09 54.9614 18.3 54.8414 18.48C54.7314 18.66 54.6764 18.89 54.6764 19.17Z" fill="#0F2347" fill-opacity="0.35"/>
<path d="M62.7265 18V10.5H61.6015V18H62.7265ZM62.7265 8.805V7.5H61.6015V8.805H62.7265Z" fill="#0F2347" fill-opacity="0.35"/>
<path d="M67.2377 11.355C66.1477 11.355 65.6027 11.735 65.6027 12.495C65.6027 12.855 65.7277 13.1 65.9777 13.23C66.2377 13.38 66.8077 13.53 67.6877 13.68C68.1377 13.76 68.5177 13.85 68.8277 13.95C69.1377 14.04 69.3877 14.17 69.5777 14.34C69.7777 14.5 69.9177 14.705 69.9977 14.955C70.0877 15.205 70.1327 15.525 70.1327 15.915C70.1327 16.695 69.8877 17.265 69.3977 17.625C68.9077 17.975 68.1827 18.15 67.2227 18.15C66.9127 18.15 66.5727 18.13 66.2027 18.09C65.8427 18.06 65.4527 18.01 65.0327 17.94L64.5827 17.865L64.6427 16.89C65.2127 16.97 65.7127 17.035 66.1427 17.085C66.5727 17.125 66.9327 17.145 67.2227 17.145C67.8027 17.145 68.2427 17.055 68.5427 16.875C68.8527 16.685 69.0077 16.37 69.0077 15.93C69.0077 15.51 68.8777 15.215 68.6177 15.045C68.3477 14.885 67.7777 14.74 66.9077 14.61C66.4677 14.54 66.0927 14.46 65.7827 14.37C65.4827 14.27 65.2327 14.145 65.0327 13.995C64.8427 13.835 64.7027 13.635 64.6127 13.395C64.5227 13.155 64.4777 12.855 64.4777 12.495C64.4777 12.135 64.5427 11.82 64.6727 11.55C64.8127 11.28 65.0027 11.055 65.2427 10.875C65.4827 10.695 65.7677 10.565 66.0977 10.485C66.4277 10.395 66.7877 10.35 67.1777 10.35C67.4877 10.35 67.8327 10.37 68.2127 10.41C68.5927 10.44 69.0127 10.49 69.4727 10.56L69.8927 10.635L69.8627 11.595C69.3027 11.515 68.8027 11.455 68.3627 11.415C67.9327 11.375 67.5577 11.355 67.2377 11.355Z" fill="#0F2347" fill-opacity="0.35"/>
<path d="M75.7404 10.5V11.475H73.3554V15.06C73.3554 15.93 73.4204 16.495 73.5504 16.755C73.6704 17.025 73.9654 17.16 74.4354 17.16L75.7704 17.07L75.8454 18C75.5054 18.05 75.2054 18.09 74.9454 18.12C74.6954 18.15 74.4854 18.165 74.3154 18.165C73.9254 18.165 73.5954 18.12 73.3254 18.03C73.0654 17.95 72.8554 17.805 72.6954 17.595C72.5354 17.385 72.4204 17.105 72.3504 16.755C72.2804 16.405 72.2454 15.96 72.2454 15.42V11.475H71.1804V10.5H72.2454V8.205H73.3554V10.5H75.7404Z" fill="#0F2347" fill-opacity="0.35"/>
<path d="M82.2142 17.07L82.6492 17.025L82.6792 17.91C82.1092 17.99 81.5792 18.05 81.0892 18.09C80.6092 18.13 80.1642 18.15 79.7542 18.15C78.6742 18.15 77.9092 17.84 77.4592 17.22C77.0092 16.59 76.7842 15.615 76.7842 14.295C76.7842 11.665 77.8292 10.35 79.9192 10.35C80.9392 10.35 81.6942 10.635 82.1842 11.205C82.6842 11.765 82.9342 12.65 82.9342 13.86L82.8742 14.715H77.9242C77.9242 15.555 78.0742 16.175 78.3742 16.575C78.6742 16.965 79.1992 17.16 79.9492 17.16C80.6992 17.16 81.4542 17.13 82.2142 17.07ZM77.9092 13.815H81.8092C81.8092 12.895 81.6592 12.245 81.3592 11.865C81.0692 11.485 80.5942 11.295 79.9342 11.295C79.2642 11.295 78.7592 11.495 78.4192 11.895C78.0892 12.295 77.9192 12.935 77.9092 13.815Z" fill="#0F2347" fill-opacity="0.35"/>
<path d="M85.8124 18H84.6874V10.5H85.7974V11.52C86.6574 10.93 87.5724 10.535 88.5424 10.335V11.475C88.3324 11.515 88.1124 11.57 87.8824 11.64C87.6624 11.71 87.4424 11.785 87.2224 11.865C87.0124 11.935 86.8174 12.01 86.6374 12.09C86.4574 12.17 86.3074 12.24 86.1874 12.3L85.8124 12.495V18Z" fill="#0F2347" fill-opacity="0.35"/>
<path d="M0 9C0 4.02944 4.02944 0 9 0H19C23.9706 0 28 4.02944 28 9V19C28 23.9706 23.9706 28 19 28H9C4.02944 28 0 23.9706 0 19V9Z" fill="#D1D3D5" fill-opacity="0.2"/>
<path d="M19 21H13C12.7348 21 12.4804 20.8946 12.2929 20.7071C12.1054 20.5196 12 20.2652 12 20V18.5H13V20H19V8H13V9.5H12V8C12 7.73478 12.1054 7.48043 12.2929 7.29289C12.4804 7.10536 12.7348 7 13 7H19C19.2652 7 19.5196 7.10536 19.7071 7.29289C19.8946 7.48043 20 7.73478 20 8V20C20 20.2652 19.8946 20.5196 19.7071 20.7071C19.5196 20.8946 19.2652 21 19 21Z" fill="#0F2347" fill-opacity="0.25"/>
<path d="M13.295 16.295L15.085 14.5H8V13.5H15.085L13.295 11.705L14 11L17 14L14 17L13.295 16.295Z" fill="#0F2347" fill-opacity="0.25"/>
</svg>
