<svg width="70" height="28" viewBox="0 0 70 28" fill="none" xmlns="http://www.w3.org/2000/svg">
<path d="M42.99 16.965H38.43V7.62H37.275V18H42.99V16.965Z" fill="#0F2347" fill-opacity="0.35"/>
<path d="M43.9277 14.235C43.9277 13.545 43.9827 12.955 44.0927 12.465C44.2127 11.975 44.4027 11.575 44.6627 11.265C44.9227 10.945 45.2577 10.715 45.6677 10.575C46.0777 10.425 46.5727 10.35 47.1527 10.35C47.7327 10.35 48.2227 10.425 48.6227 10.575C49.0327 10.715 49.3627 10.945 49.6127 11.265C49.8727 11.575 50.0577 11.975 50.1677 12.465C50.2877 12.955 50.3477 13.545 50.3477 14.235C50.3477 14.925 50.2927 15.515 50.1827 16.005C50.0827 16.495 49.9077 16.9 49.6577 17.22C49.4077 17.54 49.0777 17.775 48.6677 17.925C48.2577 18.075 47.7477 18.15 47.1377 18.15C46.5277 18.15 46.0177 18.075 45.6077 17.925C45.1977 17.775 44.8677 17.54 44.6177 17.22C44.3677 16.9 44.1877 16.495 44.0777 16.005C43.9777 15.515 43.9277 14.925 43.9277 14.235ZM45.0827 14.205C45.0827 14.755 45.1077 15.22 45.1577 15.6C45.2177 15.97 45.3227 16.275 45.4727 16.515C45.6327 16.745 45.8477 16.915 46.1177 17.025C46.3877 17.125 46.7327 17.175 47.1527 17.175C47.5727 17.175 47.9127 17.125 48.1727 17.025C48.4427 16.925 48.6527 16.76 48.8027 16.53C48.9527 16.29 49.0527 15.985 49.1027 15.615C49.1627 15.235 49.1927 14.77 49.1927 14.22C49.1927 13.67 49.1577 13.21 49.0877 12.84C49.0277 12.47 48.9177 12.175 48.7577 11.955C48.5977 11.725 48.3877 11.565 48.1277 11.475C47.8677 11.375 47.5427 11.325 47.1527 11.325C46.7627 11.325 46.4327 11.375 46.1627 11.475C45.9027 11.565 45.6927 11.725 45.5327 11.955C45.3727 12.175 45.2577 12.47 45.1877 12.84C45.1177 13.2 45.0827 13.655 45.0827 14.205Z" fill="#0F2347" fill-opacity="0.35"/>
<path d="M55.0775 21.525C54.4775 21.525 53.9725 21.485 53.5625 21.405C53.1525 21.335 52.8175 21.21 52.5575 21.03C52.3075 20.86 52.1275 20.63 52.0175 20.34C51.9075 20.05 51.8525 19.69 51.8525 19.26C51.8525 19.05 51.8725 18.865 51.9125 18.705C51.9625 18.555 52.0325 18.405 52.1225 18.255C52.2225 18.115 52.3475 17.98 52.4975 17.85C52.6475 17.71 52.8275 17.56 53.0375 17.4C52.7575 17.21 52.6175 16.865 52.6175 16.365C52.6175 16.195 52.7425 15.88 52.9925 15.42L53.1275 15.18C52.3375 14.82 51.9425 14.065 51.9425 12.915C51.9425 11.205 52.8775 10.35 54.7475 10.35C55.2475 10.35 55.6925 10.4 56.0825 10.5L56.3075 10.545L58.5275 10.485V11.445L57.1025 11.415C57.4325 11.745 57.5975 12.245 57.5975 12.915C57.5975 13.855 57.3625 14.515 56.8925 14.895C56.4325 15.265 55.7025 15.45 54.7025 15.45C54.4125 15.45 54.1675 15.43 53.9675 15.39C53.7875 15.82 53.6975 16.105 53.6975 16.245C53.6975 16.555 53.7925 16.745 53.9825 16.815C54.1925 16.895 54.7675 16.935 55.7075 16.935C56.1875 16.935 56.5975 16.97 56.9375 17.04C57.2775 17.1 57.5575 17.215 57.7775 17.385C57.9975 17.555 58.1575 17.78 58.2575 18.06C58.3575 18.35 58.4075 18.71 58.4075 19.14C58.4075 20.73 57.2975 21.525 55.0775 21.525ZM53.0675 12.915C53.0675 13.515 53.1975 13.94 53.4575 14.19C53.7275 14.43 54.1675 14.55 54.7775 14.55C55.3875 14.55 55.8225 14.425 56.0825 14.175C56.3425 13.925 56.4725 13.5 56.4725 12.9C56.4725 12.3 56.3425 11.88 56.0825 11.64C55.8225 11.39 55.3875 11.265 54.7775 11.265C54.1675 11.265 53.7275 11.39 53.4575 11.64C53.1975 11.89 53.0675 12.315 53.0675 12.915ZM52.9625 19.17C52.9625 19.44 52.9975 19.665 53.0675 19.845C53.1375 20.025 53.2525 20.17 53.4125 20.28C53.5725 20.39 53.7825 20.465 54.0425 20.505C54.3125 20.555 54.6475 20.58 55.0475 20.58C55.8475 20.58 56.4175 20.47 56.7575 20.25C57.0975 20.03 57.2675 19.66 57.2675 19.14C57.2675 18.89 57.2375 18.685 57.1775 18.525C57.1275 18.365 57.0325 18.24 56.8925 18.15C56.7525 18.06 56.5625 18 56.3225 17.97C56.0825 17.94 55.7825 17.925 55.4225 17.925L53.8025 17.85C53.4725 18.09 53.2475 18.3 53.1275 18.48C53.0175 18.66 52.9625 18.89 52.9625 19.17Z" fill="#0F2347" fill-opacity="0.35"/>
<path d="M61.0126 18V10.5H59.8876V18H61.0126ZM61.0126 8.805V7.5H59.8876V8.805H61.0126Z" fill="#0F2347" fill-opacity="0.35"/>
<path d="M64.2939 11.91V18H63.1689V10.5H64.2789V11.025C65.0889 10.575 65.8639 10.35 66.6039 10.35C67.1039 10.35 67.5139 10.415 67.8339 10.545C68.1639 10.665 68.4239 10.87 68.6139 11.16C68.8139 11.45 68.9489 11.83 69.0189 12.3C69.0989 12.77 69.1389 13.35 69.1389 14.04V18H68.0289V14.07C68.0289 13.55 68.0039 13.115 67.9539 12.765C67.9139 12.415 67.8339 12.135 67.7139 11.925C67.5939 11.715 67.4289 11.57 67.2189 11.49C67.0089 11.4 66.7389 11.355 66.4089 11.355C66.0889 11.355 65.7489 11.405 65.3889 11.505C65.0389 11.595 64.7689 11.685 64.5789 11.775L64.2939 11.91Z" fill="#0F2347" fill-opacity="0.35"/>
<path d="M0 9C0 4.02944 4.02944 0 9 0H19C23.9706 0 28 4.02944 28 9V19C28 23.9706 23.9706 28 19 28H9C4.02944 28 0 23.9706 0 19V9Z" fill="#D1D3D5" fill-opacity="0.2"/>
<path d="M19 21H13C12.7348 21 12.4804 20.8946 12.2929 20.7071C12.1054 20.5196 12 20.2652 12 20V18.5H13V20H19V8H13V9.5H12V8C12 7.73478 12.1054 7.48043 12.2929 7.29289C12.4804 7.10536 12.7348 7 13 7H19C19.2652 7 19.5196 7.10536 19.7071 7.29289C19.8946 7.48043 20 7.73478 20 8V20C20 20.2652 19.8946 20.5196 19.7071 20.7071C19.5196 20.8946 19.2652 21 19 21Z" fill="#0F2347" fill-opacity="0.25"/>
<path d="M13.295 16.295L15.085 14.5H8V13.5H15.085L13.295 11.705L14 11L17 14L14 17L13.295 16.295Z" fill="#0F2347" fill-opacity="0.25"/>
</svg>
