<svg width="80" height="28" viewBox="0 0 80 28" fill="none" xmlns="http://www.w3.org/2000/svg">
<path d="M42.99 16.965H38.43V7.62H37.275V18H42.99V16.965Z" fill="#0F2347" fill-opacity="0.35"/>
<path d="M43.9277 14.235C43.9277 13.545 43.9827 12.955 44.0927 12.465C44.2127 11.975 44.4027 11.575 44.6627 11.265C44.9227 10.945 45.2577 10.715 45.6677 10.575C46.0777 10.425 46.5727 10.35 47.1527 10.35C47.7327 10.35 48.2227 10.425 48.6227 10.575C49.0327 10.715 49.3627 10.945 49.6127 11.265C49.8727 11.575 50.0577 11.975 50.1677 12.465C50.2877 12.955 50.3477 13.545 50.3477 14.235C50.3477 14.925 50.2927 15.515 50.1827 16.005C50.0827 16.495 49.9077 16.9 49.6577 17.22C49.4077 17.54 49.0777 17.775 48.6677 17.925C48.2577 18.075 47.7477 18.15 47.1377 18.15C46.5277 18.15 46.0177 18.075 45.6077 17.925C45.1977 17.775 44.8677 17.54 44.6177 17.22C44.3677 16.9 44.1877 16.495 44.0777 16.005C43.9777 15.515 43.9277 14.925 43.9277 14.235ZM45.0827 14.205C45.0827 14.755 45.1077 15.22 45.1577 15.6C45.2177 15.97 45.3227 16.275 45.4727 16.515C45.6327 16.745 45.8477 16.915 46.1177 17.025C46.3877 17.125 46.7327 17.175 47.1527 17.175C47.5727 17.175 47.9127 17.125 48.1727 17.025C48.4427 16.925 48.6527 16.76 48.8027 16.53C48.9527 16.29 49.0527 15.985 49.1027 15.615C49.1627 15.235 49.1927 14.77 49.1927 14.22C49.1927 13.67 49.1577 13.21 49.0877 12.84C49.0277 12.47 48.9177 12.175 48.7577 11.955C48.5977 11.725 48.3877 11.565 48.1277 11.475C47.8677 11.375 47.5427 11.325 47.1527 11.325C46.7627 11.325 46.4327 11.375 46.1627 11.475C45.9027 11.565 45.6927 11.725 45.5327 11.955C45.3727 12.175 45.2577 12.47 45.1877 12.84C45.1177 13.2 45.0827 13.655 45.0827 14.205Z" fill="#0F2347" fill-opacity="0.35"/>
<path d="M55.0775 21.525C54.4775 21.525 53.9725 21.485 53.5625 21.405C53.1525 21.335 52.8175 21.21 52.5575 21.03C52.3075 20.86 52.1275 20.63 52.0175 20.34C51.9075 20.05 51.8525 19.69 51.8525 19.26C51.8525 19.05 51.8725 18.865 51.9125 18.705C51.9625 18.555 52.0325 18.405 52.1225 18.255C52.2225 18.115 52.3475 17.98 52.4975 17.85C52.6475 17.71 52.8275 17.56 53.0375 17.4C52.7575 17.21 52.6175 16.865 52.6175 16.365C52.6175 16.195 52.7425 15.88 52.9925 15.42L53.1275 15.18C52.3375 14.82 51.9425 14.065 51.9425 12.915C51.9425 11.205 52.8775 10.35 54.7475 10.35C55.2475 10.35 55.6925 10.4 56.0825 10.5L56.3075 10.545L58.5275 10.485V11.445L57.1025 11.415C57.4325 11.745 57.5975 12.245 57.5975 12.915C57.5975 13.855 57.3625 14.515 56.8925 14.895C56.4325 15.265 55.7025 15.45 54.7025 15.45C54.4125 15.45 54.1675 15.43 53.9675 15.39C53.7875 15.82 53.6975 16.105 53.6975 16.245C53.6975 16.555 53.7925 16.745 53.9825 16.815C54.1925 16.895 54.7675 16.935 55.7075 16.935C56.1875 16.935 56.5975 16.97 56.9375 17.04C57.2775 17.1 57.5575 17.215 57.7775 17.385C57.9975 17.555 58.1575 17.78 58.2575 18.06C58.3575 18.35 58.4075 18.71 58.4075 19.14C58.4075 20.73 57.2975 21.525 55.0775 21.525ZM53.0675 12.915C53.0675 13.515 53.1975 13.94 53.4575 14.19C53.7275 14.43 54.1675 14.55 54.7775 14.55C55.3875 14.55 55.8225 14.425 56.0825 14.175C56.3425 13.925 56.4725 13.5 56.4725 12.9C56.4725 12.3 56.3425 11.88 56.0825 11.64C55.8225 11.39 55.3875 11.265 54.7775 11.265C54.1675 11.265 53.7275 11.39 53.4575 11.64C53.1975 11.89 53.0675 12.315 53.0675 12.915ZM52.9625 19.17C52.9625 19.44 52.9975 19.665 53.0675 19.845C53.1375 20.025 53.2525 20.17 53.4125 20.28C53.5725 20.39 53.7825 20.465 54.0425 20.505C54.3125 20.555 54.6475 20.58 55.0475 20.58C55.8475 20.58 56.4175 20.47 56.7575 20.25C57.0975 20.03 57.2675 19.66 57.2675 19.14C57.2675 18.89 57.2375 18.685 57.1775 18.525C57.1275 18.365 57.0325 18.24 56.8925 18.15C56.7525 18.06 56.5625 18 56.3225 17.97C56.0825 17.94 55.7825 17.925 55.4225 17.925L53.8025 17.85C53.4725 18.09 53.2475 18.3 53.1275 18.48C53.0175 18.66 52.9625 18.89 52.9625 19.17Z" fill="#0F2347" fill-opacity="0.35"/>
<path d="M59.5576 14.235C59.5576 13.545 59.6126 12.955 59.7226 12.465C59.8426 11.975 60.0326 11.575 60.2926 11.265C60.5526 10.945 60.8876 10.715 61.2976 10.575C61.7076 10.425 62.2026 10.35 62.7826 10.35C63.3626 10.35 63.8526 10.425 64.2526 10.575C64.6626 10.715 64.9926 10.945 65.2426 11.265C65.5026 11.575 65.6876 11.975 65.7976 12.465C65.9176 12.955 65.9776 13.545 65.9776 14.235C65.9776 14.925 65.9226 15.515 65.8126 16.005C65.7126 16.495 65.5376 16.9 65.2876 17.22C65.0376 17.54 64.7076 17.775 64.2976 17.925C63.8876 18.075 63.3776 18.15 62.7676 18.15C62.1576 18.15 61.6476 18.075 61.2376 17.925C60.8276 17.775 60.4976 17.54 60.2476 17.22C59.9976 16.9 59.8176 16.495 59.7076 16.005C59.6076 15.515 59.5576 14.925 59.5576 14.235ZM60.7126 14.205C60.7126 14.755 60.7376 15.22 60.7876 15.6C60.8476 15.97 60.9526 16.275 61.1026 16.515C61.2626 16.745 61.4776 16.915 61.7476 17.025C62.0176 17.125 62.3626 17.175 62.7826 17.175C63.2026 17.175 63.5426 17.125 63.8026 17.025C64.0726 16.925 64.2826 16.76 64.4326 16.53C64.5826 16.29 64.6826 15.985 64.7326 15.615C64.7926 15.235 64.8226 14.77 64.8226 14.22C64.8226 13.67 64.7876 13.21 64.7176 12.84C64.6576 12.47 64.5476 12.175 64.3876 11.955C64.2276 11.725 64.0176 11.565 63.7576 11.475C63.4976 11.375 63.1726 11.325 62.7826 11.325C62.3926 11.325 62.0626 11.375 61.7926 11.475C61.5326 11.565 61.3226 11.725 61.1626 11.955C61.0026 12.175 60.8876 12.47 60.8176 12.84C60.7476 13.2 60.7126 13.655 60.7126 14.205Z" fill="#0F2347" fill-opacity="0.35"/>
<path d="M72.4924 16.59V10.5H73.6174V18H72.4924V17.475C71.7424 17.925 71.0024 18.15 70.2724 18.15C69.7624 18.15 69.3424 18.09 69.0124 17.97C68.6824 17.85 68.4224 17.645 68.2324 17.355C68.0524 17.065 67.9224 16.685 67.8424 16.215C67.7724 15.735 67.7374 15.135 67.7374 14.415V10.5H68.8624V14.4C68.8624 14.94 68.8824 15.39 68.9224 15.75C68.9624 16.1 69.0374 16.38 69.1474 16.59C69.2574 16.8 69.4174 16.945 69.6274 17.025C69.8374 17.105 70.1074 17.145 70.4374 17.145C70.7674 17.145 71.1024 17.1 71.4424 17.01C71.7824 16.91 72.0424 16.815 72.2224 16.725L72.4924 16.59Z" fill="#0F2347" fill-opacity="0.35"/>
<path d="M79.6662 10.5V11.475H77.2812V15.06C77.2812 15.93 77.3462 16.495 77.4762 16.755C77.5962 17.025 77.8912 17.16 78.3612 17.16L79.6962 17.07L79.7712 18C79.4312 18.05 79.1312 18.09 78.8712 18.12C78.6212 18.15 78.4112 18.165 78.2412 18.165C77.8512 18.165 77.5212 18.12 77.2512 18.03C76.9912 17.95 76.7812 17.805 76.6212 17.595C76.4612 17.385 76.3462 17.105 76.2762 16.755C76.2062 16.405 76.1712 15.96 76.1712 15.42V11.475H75.1062V10.5H76.1712V8.205H77.2812V10.5H79.6662Z" fill="#0F2347" fill-opacity="0.35"/>
<path d="M0 9C0 4.02944 4.02944 0 9 0H19C23.9706 0 28 4.02944 28 9V19C28 23.9706 23.9706 28 19 28H9C4.02944 28 0 23.9706 0 19V9Z" fill="#D1D3D5" fill-opacity="0.2"/>
<path d="M10 21H16C16.2651 20.9997 16.5193 20.8943 16.7068 20.7068C16.8943 20.5193 16.9997 20.2651 17 20V18.5H16V20H10V8H16V9.5H17V8C16.9997 7.73486 16.8943 7.48066 16.7068 7.29319C16.5193 7.10571 16.2651 7.00026 16 7H10C9.73486 7.00026 9.48067 7.10571 9.29319 7.29319C9.10571 7.48066 9.00026 7.73486 9 8V20C9.00026 20.2651 9.10571 20.5193 9.29319 20.7068C9.48067 20.8943 9.73486 20.9997 10 21Z" fill="#0F2347" fill-opacity="0.25"/>
<path d="M17.293 16.293L19.086 14.5H12V13.5H19.086L17.293 11.707L18 11L21 14L18 17L17.293 16.293Z" fill="#0F2347" fill-opacity="0.25"/>
</svg>
