<svg width="76" height="23" viewBox="0 0 76 23" fill="none" xmlns="http://www.w3.org/2000/svg">
<path d="M28.916 17V11.852H34.046V10.628H28.916V5.768H34.982V4.544H27.53V17H28.916ZM36.3746 12.482C36.3746 11.654 36.4406 10.946 36.5726 10.358C36.7166 9.77 36.9446 9.29 37.2566 8.918C37.5686 8.534 37.9706 8.258 38.4626 8.09C38.9546 7.91 39.5486 7.82 40.2446 7.82C40.9406 7.82 41.5286 7.91 42.0086 8.09C42.5006 8.258 42.8966 8.534 43.1966 8.918C43.5086 9.29 43.7306 9.77 43.8626 10.358C44.0066 10.946 44.0786 11.654 44.0786 12.482C44.0786 13.31 44.0126 14.018 43.8806 14.606C43.7606 15.194 43.5506 15.68 43.2506 16.064C42.9506 16.448 42.5546 16.73 42.0626 16.91C41.5706 17.09 40.9586 17.18 40.2266 17.18C39.4946 17.18 38.8826 17.09 38.3906 16.91C37.8986 16.73 37.5026 16.448 37.2026 16.064C36.9026 15.68 36.6866 15.194 36.5546 14.606C36.4346 14.018 36.3746 13.31 36.3746 12.482ZM37.7606 12.446C37.7606 13.106 37.7906 13.664 37.8506 14.12C37.9226 14.564 38.0486 14.93 38.2286 15.218C38.4206 15.494 38.6786 15.698 39.0026 15.83C39.3266 15.95 39.7406 16.01 40.2446 16.01C40.7486 16.01 41.1566 15.95 41.4686 15.83C41.7926 15.71 42.0446 15.512 42.2246 15.236C42.4046 14.948 42.5246 14.582 42.5846 14.138C42.6566 13.682 42.6926 13.124 42.6926 12.464C42.6926 11.804 42.6506 11.252 42.5666 10.808C42.4946 10.364 42.3626 10.01 42.1706 9.746C41.9786 9.47 41.7266 9.278 41.4146 9.17C41.1026 9.05 40.7126 8.99 40.2446 8.99C39.7766 8.99 39.3806 9.05 39.0566 9.17C38.7446 9.278 38.4926 9.47 38.3006 9.746C38.1086 10.01 37.9706 10.364 37.8866 10.808C37.8026 11.24 37.7606 11.786 37.7606 12.446ZM47.6304 17H46.2804V8H47.6124V9.224C48.6444 8.516 49.7424 8.042 50.9064 7.802V9.17C50.6544 9.218 50.3904 9.284 50.1144 9.368C49.8504 9.452 49.5864 9.542 49.3224 9.638C49.0704 9.722 48.8364 9.812 48.6204 9.908C48.4044 10.004 48.2244 10.088 48.0804 10.16L47.6304 10.394V17ZM58.119 15.308V8H59.469V17H58.119V16.37C57.219 16.91 56.331 17.18 55.455 17.18C54.843 17.18 54.339 17.108 53.943 16.964C53.547 16.82 53.235 16.574 53.007 16.226C52.791 15.878 52.635 15.422 52.539 14.858C52.455 14.282 52.413 13.562 52.413 12.698V8H53.763V12.68C53.763 13.328 53.787 13.868 53.835 14.3C53.883 14.72 53.973 15.056 54.105 15.308C54.237 15.56 54.429 15.734 54.681 15.83C54.933 15.926 55.257 15.974 55.653 15.974C56.049 15.974 56.451 15.92 56.859 15.812C57.267 15.692 57.579 15.578 57.795 15.47L58.119 15.308ZM63.4155 9.692V17H62.0655V8H63.3975V8.63C64.2975 8.09 65.1735 7.82 66.0255 7.82C67.1415 7.82 67.9215 8.126 68.3655 8.738C68.5695 8.618 68.8035 8.504 69.0675 8.396C69.3315 8.276 69.6075 8.174 69.8955 8.09C70.1955 8.006 70.4895 7.94 70.7775 7.892C71.0655 7.844 71.3295 7.82 71.5695 7.82C72.1695 7.82 72.6615 7.898 73.0455 8.054C73.4415 8.198 73.7535 8.444 73.9815 8.792C74.2215 9.128 74.3835 9.584 74.4675 10.16C74.5635 10.724 74.6115 11.42 74.6115 12.248V17H73.2615V12.284C73.2615 11.66 73.2375 11.138 73.1895 10.718C73.1415 10.298 73.0455 9.962 72.9015 9.71C72.7695 9.458 72.5775 9.284 72.3255 9.188C72.0855 9.08 71.7675 9.026 71.3715 9.026C70.9755 9.026 70.5675 9.086 70.1475 9.206C69.7275 9.314 69.4035 9.422 69.1755 9.53L68.8335 9.692C68.9895 10.076 69.0675 10.952 69.0675 12.32V17H67.7175V12.356C67.7175 11.708 67.6935 11.174 67.6455 10.754C67.5975 10.322 67.5015 9.98 67.3575 9.728C67.2255 9.464 67.0335 9.284 66.7815 9.188C66.5415 9.08 66.2235 9.026 65.8275 9.026C65.4435 9.026 65.0475 9.086 64.6395 9.206C64.2435 9.314 63.9375 9.422 63.7215 9.53L63.4155 9.692Z" fill="#0F2347" fill-opacity="0.35"/>
<rect x="1" y="2" width="17" height="17" stroke="#C6BFFF" stroke-opacity="0.5" stroke-width="2"/>
<path d="M8.04 16V11.84H12.216V10.288H8.04V6.592H13.064V5.04H6.264V16H8.04Z" fill="#5545CF" fill-opacity="0.3"/>
</svg>
