<svg width="18" height="18" viewBox="0 0 18 18" fill="none" xmlns="http://www.w3.org/2000/svg">
<path d="M16.475 1.4975C16.1705 1.19289 15.8088 0.951327 15.4108 0.786632C15.0128 0.621936 14.5862 0.537342 14.1555 0.53769C13.7248 0.538039 13.2983 0.623322 12.9006 0.788661C12.5028 0.954001 12.1416 1.19615 11.8375 1.50125L10.8625 2.48L15.495 7.11375L16.4775 6.12875C17.0908 5.51392 17.4349 4.68076 17.4342 3.81235C17.4335 2.94394 17.0881 2.11134 16.4738 1.4975H16.475ZM2.50252 10.8625L9.97752 3.365L14.6113 7.99875L7.14002 15.4925C6.94331 15.69 6.70502 15.8412 6.44252 15.935L1.48127 17.705C1.31397 17.7647 1.13313 17.7757 0.959831 17.7366C0.786531 17.6976 0.627899 17.6101 0.502412 17.4843C0.376926 17.3586 0.289751 17.1998 0.251042 17.0264C0.212333 16.853 0.223683 16.6722 0.28377 16.505L2.06627 11.5513C2.15941 11.2924 2.30835 11.0573 2.50252 10.8625ZM0.87502 1.5H10.0713L8.82502 2.75H0.87502C0.70926 2.75 0.550289 2.68415 0.433079 2.56694C0.315868 2.44973 0.25002 2.29076 0.25002 2.125C0.25002 1.95924 0.315868 1.80027 0.433079 1.68306C0.550289 1.56585 0.70926 1.5 0.87502 1.5ZM0.87502 4H7.57877L6.33252 5.25H0.87502C0.70926 5.25 0.550289 5.18415 0.433079 5.06694C0.315868 4.94973 0.25002 4.79076 0.25002 4.625C0.25002 4.45924 0.315868 4.30027 0.433079 4.18306C0.550289 4.06585 0.70926 4 0.87502 4ZM0.87502 6.5H5.08752L3.84002 7.75H0.87502C0.70926 7.75 0.550289 7.68415 0.433079 7.56694C0.315868 7.44973 0.25002 7.29076 0.25002 7.125C0.25002 6.95924 0.315868 6.80027 0.433079 6.68306C0.550289 6.56585 0.70926 6.5 0.87502 6.5Z" fill="#0F2347" fill-opacity="0.2"/>
</svg>
