<svg width="20" height="20" viewBox="0 0 20 20" fill="none" xmlns="http://www.w3.org/2000/svg">
<path d="M1.25 10H4.375V18.75H1.25V10ZM14.375 18.75H5.625V9.49812L7.52625 6.64625L8.05438 2.94813C8.09818 2.6508 8.24713 2.37904 8.47418 2.18214C8.70123 1.98525 8.99134 1.87628 9.29187 1.875H9.375C9.87213 1.8755 10.3488 2.0732 10.7003 2.42472C11.0518 2.77625 11.2495 3.25287 11.25 3.75V7.5H16.25C16.9128 7.50083 17.5482 7.76448 18.0169 8.23315C18.4855 8.70181 18.7492 9.33721 18.75 10V14.375C18.7487 15.5349 18.2873 16.6469 17.4671 17.4671C16.6469 18.2873 15.5349 18.7487 14.375 18.75Z" fill="#0F2347" fill-opacity="0.2"/>
</svg>
